<svg width="64" height="64" viewBox="0 0 64 64" fill="none" xmlns="http://www.w3.org/2000/svg">
<g filter="url(#filter0_d_2708_40)">
<path d="M29.6991 57.3982C44.9969 57.3982 57.3982 44.9969 57.3982 29.6991C57.3982 14.4013 44.9969 2 29.6991 2C14.4013 2 2 14.4013 2 29.6991C2 44.9969 14.4013 57.3982 29.6991 57.3982Z" fill="black"/>
</g>
<path d="M29.7 1C14.4032 1 2 13.7247 2 29.4049C2 41.9564 9.93902 52.5912 20.9448 56.3505C21.0992 56.384 21.2568 56.4006 21.4147 56.4C22.4411 56.4 22.8368 55.6457 22.8368 54.9902C22.8368 54.3101 22.8121 52.5294 22.7997 50.1551C21.8835 50.3699 20.9461 50.4819 20.005 50.489C14.6752 50.489 13.4633 46.3464 13.4633 46.3464C12.202 43.0694 10.3842 42.1914 10.3842 42.1914C7.97281 40.4972 10.3718 40.4478 10.5573 40.4478H10.5697C13.3521 40.6951 14.8113 43.3909 14.8113 43.3909C16.1963 45.8146 18.0512 46.4948 19.7082 46.4948C20.8039 46.4728 21.8826 46.22 22.8739 45.7528C23.1213 43.9226 23.8385 42.6736 24.6299 41.9564C18.484 41.2392 12.0165 38.8031 12.0165 27.9209C12.0165 24.817 13.0924 22.282 14.8607 20.3034C14.5763 19.5862 13.6241 16.6925 15.1328 12.7849C15.3351 12.7364 15.5431 12.7156 15.7511 12.723C16.7527 12.723 19.0157 13.1064 22.7503 15.7033C27.288 14.4336 32.0872 14.4336 36.625 15.7033C40.3596 13.1064 42.6225 12.723 43.6242 12.723C43.8321 12.7156 44.0401 12.7364 44.2425 12.7849C45.7512 16.6925 44.799 19.5862 44.5146 20.3034C46.2829 22.2944 47.3588 24.8294 47.3588 27.9209C47.3588 38.8278 40.8789 41.2268 34.7083 41.9317C35.6975 42.8097 36.5879 44.5409 36.5879 47.1873C36.5879 50.9836 36.5508 54.0504 36.5508 54.9779C36.5508 55.6456 36.9342 56.4 37.9605 56.4C38.1267 56.4007 38.2925 56.3841 38.4552 56.3505C49.4733 52.5912 57.4 41.944 57.4 29.4049C57.4 13.7247 44.9968 1 29.7 1Z" fill="#29A9FF"/>
<defs>
<filter id="filter0_d_2708_40" x="0" y="0" width="63.3984" height="63.3982" filterUnits="userSpaceOnUse" color-interpolation-filters="sRGB">
<feFlood flood-opacity="0" result="BackgroundImageFix"/>
<feColorMatrix in="SourceAlpha" type="matrix" values="0 0 0 0 0 0 0 0 0 0 0 0 0 0 0 0 0 0 127 0" result="hardAlpha"/>
<feOffset dx="2" dy="2"/>
<feGaussianBlur stdDeviation="2"/>
<feColorMatrix type="matrix" values="0 0 0 0 0.0708333 0 0 0 0 0.0708333 0 0 0 0 0.0708333 0 0 0 0.65 0"/>
<feBlend mode="normal" in2="BackgroundImageFix" result="effect1_dropShadow_2708_40"/>
<feBlend mode="normal" in="SourceGraphic" in2="effect1_dropShadow_2708_40" result="shape"/>
</filter>
</defs>
</svg>
