<svg width="300" height="300" viewBox="0 0 300 300" fill="none" xmlns="http://www.w3.org/2000/svg">
<path fill-rule="evenodd" clip-rule="evenodd" d="M243.006 56.8946C230.871 44.7544 216.456 35.1342 200.588 28.5877C184.721 22.0413 167.715 18.6979 150.551 18.7501C78.5156 18.7501 19.875 77.0978 19.8457 148.828C19.8138 171.669 25.8345 194.11 37.2949 213.867L18.75 281.25L88.0371 263.162C107.216 273.552 128.685 278.99 150.498 278.983H150.551C222.58 278.983 281.215 220.629 281.25 148.904C281.294 131.798 277.935 114.854 271.369 99.0583C264.804 83.2624 255.162 68.9298 243.006 56.8946ZM150.551 257.027H150.504C131.059 257.033 111.967 251.829 95.2148 241.957L91.248 239.613L50.1328 250.348L61.1074 210.451L58.5234 206.35C47.6507 189.136 41.8901 169.188 41.9121 148.828C41.9121 89.2208 90.668 40.7228 150.592 40.7228C179.338 40.6714 206.927 52.0404 227.292 72.3289C247.656 92.6175 259.128 120.164 259.184 148.91C259.16 208.524 210.428 257.027 150.551 257.027ZM210.135 176.057C206.871 174.428 190.799 166.565 187.822 165.481C184.846 164.397 182.648 163.852 180.475 167.109C178.301 170.367 172.037 177.656 170.133 179.854C168.228 182.051 166.324 182.291 163.061 180.662C159.797 179.033 149.268 175.606 136.793 164.531C127.084 155.912 120.533 145.272 118.629 142.02C116.725 138.768 118.424 137.004 120.059 135.387C121.529 133.928 123.322 131.59 124.957 129.692C126.592 127.793 127.137 126.434 128.221 124.266C129.305 122.098 128.766 120.199 127.951 118.576C127.137 116.953 120.604 100.951 117.885 94.4415C115.23 88.1017 112.541 88.963 110.537 88.8634C108.633 88.7696 106.436 88.7462 104.273 88.7462C102.621 88.7892 100.994 89.1725 99.4962 89.8722C97.9981 90.5718 96.6603 91.5728 95.5664 92.8126C92.5723 96.0704 84.1348 103.945 84.1348 119.93C84.1348 135.914 95.8535 151.383 97.4707 153.551C99.0879 155.719 120.498 188.549 153.258 202.629C159.341 205.234 165.557 207.519 171.879 209.473C179.701 211.945 186.82 211.6 192.445 210.762C198.721 209.83 211.781 202.899 214.494 195.305C217.207 187.711 217.213 181.207 216.398 179.854C215.584 178.5 213.404 177.68 210.135 176.057Z" fill="white"/>
</svg>
